<?xml version="1.0" encoding="UTF-8" standalone="no"?>
<svg
   xmlns:dc="http://purl.org/dc/elements/1.1/"
   xmlns:cc="http://creativecommons.org/ns#"
   xmlns:rdf="http://www.w3.org/1999/02/22-rdf-syntax-ns#"
   xmlns:svg="http://www.w3.org/2000/svg"
   xmlns="http://www.w3.org/2000/svg"
   xmlns:sodipodi="http://sodipodi.sourceforge.net/DTD/sodipodi-0.dtd"
   xmlns:inkscape="http://www.inkscape.org/namespaces/inkscape"
   viewBox="0 0 1333.3333 1333.3333"
   height="1333.3333"
   width="1333.3333"
   xml:space="preserve"
   id="svg2"
   version="1.1"
   sodipodi:docname="SampleLOGO.svg"
   inkscape:version="1.0.1 (3bc2e813f5, 2020-09-07)"><sodipodi:namedview
     pagecolor="#ffffff"
     bordercolor="#666666"
     borderopacity="1"
     objecttolerance="10"
     gridtolerance="10"
     guidetolerance="10"
     inkscape:pageopacity="0"
     inkscape:pageshadow="2"
     inkscape:window-width="1920"
     inkscape:window-height="1017"
     id="namedview624"
     showgrid="false"
     inkscape:zoom="0.63750004"
     inkscape:cx="868.17979"
     inkscape:cy="518.27494"
     inkscape:window-x="-8"
     inkscape:window-y="-8"
     inkscape:window-maximized="1"
     inkscape:current-layer="g12"
     inkscape:snap-to-guides="false"
     inkscape:snap-grids="false"
     inkscape:snap-others="false"
     inkscape:object-nodes="false"
     inkscape:snap-nodes="false"
     inkscape:snap-global="false" /><metadata
     id="metadata8"><rdf:RDF><cc:Work
         rdf:about=""><dc:format>image/svg+xml</dc:format><dc:type
           rdf:resource="http://purl.org/dc/dcmitype/StillImage" /><dc:title></dc:title></cc:Work></rdf:RDF></metadata><defs
     id="defs6" /><g
     transform="matrix(1.3333333,0,0,-1.3333333,0,1333.3333)"
     id="g10"><g
       transform="scale(0.1)"
       id="g12"><path
         id="path536"
         style="fill:#2ecc71;fill-opacity:1;fill-rule:nonzero;stroke:none"
         d="m 5471.63,5638.03 -254.07,-254.09 98.13,-98.13 254.07,254.09 -98.13,98.13"
         inkscape:export-xdpi="373.09573"
         inkscape:export-ydpi="373.09573" /><path
         id="path538"
         style="fill:#2ecc71;fill-opacity:1;fill-rule:nonzero;stroke:none"
         d="m 4958.04,5124.43 -254.08,-254.08 98.13,-98.13 254.08,254.08 -98.13,98.13"
         inkscape:export-xdpi="373.09573"
         inkscape:export-ydpi="373.09573" /><path
         id="path540"
         style="fill:#2ecc71;fill-opacity:1;fill-rule:nonzero;stroke:none"
         d="m 5154.3,5447.2 254.08,254.08 -98.13,98.13 -254.08,-254.08 98.13,-98.13"
         inkscape:export-xdpi="373.09573"
         inkscape:export-ydpi="373.09573" /><path
         id="path542"
         style="fill:#2ecc71;fill-opacity:1;fill-rule:nonzero;stroke:none"
         d="m 4894.78,5187.68 -98.13,98.13 -254.08,-254.07 98.13,-98.13 254.08,254.07"
         inkscape:export-xdpi="373.09573"
         inkscape:export-ydpi="373.09573" /><path
         id="path544"
         style="fill:#2ecc71;fill-opacity:1;fill-rule:nonzero;stroke:none"
         d="m 4894.78,5383.94 -254.08,254.09 -98.13,-98.13 254.08,-254.09 98.13,98.13"
         inkscape:export-xdpi="373.09573"
         inkscape:export-ydpi="373.09573" /><path
         id="path546"
         style="fill:#2ecc71;fill-opacity:1;fill-rule:nonzero;stroke:none"
         d="m 4958.04,5447.2 98.13,98.13 -254.08,254.08 -98.13,-98.13 254.08,-254.08"
         inkscape:export-xdpi="373.09573"
         inkscape:export-ydpi="373.09573" /><path
         id="path548"
         style="fill:#2ecc71;fill-opacity:1;fill-rule:nonzero;stroke:none"
         d="m 5217.56,5187.68 254.07,-254.07 98.13,98.13 -254.07,254.07 -98.13,-98.13"
         inkscape:export-xdpi="373.09573"
         inkscape:export-ydpi="373.09573" /><path
         id="path550"
         style="fill:#2ecc71;fill-opacity:1;fill-rule:nonzero;stroke:none"
         d="m 5408.38,4870.35 -254.08,254.08 -98.13,-98.13 254.08,-254.08 98.13,98.13"
         inkscape:export-xdpi="373.09573"
         inkscape:export-ydpi="373.09573" /><path
         id="path552"
         style="fill:#1f2732;fill-opacity:1;fill-rule:nonzero;stroke:none"
         d="m 5408.38,4674.09 -98.13,98.13 -254.08,-254.08 -254.08,254.08 -98.13,-98.13 352.21,-352.21 352.21,352.21"
         inkscape:export-xdpi="373.09573"
         inkscape:export-ydpi="373.09573" /><path
         id="path554"
         style="fill:#1f2732;fill-opacity:1;fill-rule:nonzero;stroke:none"
         d="m 4542.57,5539.9 -98.13,98.13 -352.21,-352.22 352.21,-352.2 98.13,98.13 -254.08,254.07 254.08,254.09"
         inkscape:export-xdpi="373.09573"
         inkscape:export-ydpi="373.09573" /><path
         id="path556"
         style="fill:#1f2732;fill-opacity:1;fill-rule:nonzero;stroke:none"
         d="m 5667.89,5638.03 -98.13,-98.13 254.09,-254.09 -254.09,-254.07 98.13,-98.13 352.21,352.2 -352.21,352.22"
         inkscape:export-xdpi="373.09573"
         inkscape:export-ydpi="373.09573" /><path
         id="path558"
         style="fill:#1f2732;fill-opacity:1;fill-rule:nonzero;stroke:none"
         d="m 5310.25,5799.41 98.13,98.13 -352.21,352.22 -352.21,-352.22 98.13,-98.13 254.08,254.09 254.08,-254.09"
         inkscape:export-xdpi="373.09573"
         inkscape:export-ydpi="373.09573" /></g></g></svg>
